<svg xmlns="http://www.w3.org/2000/svg" viewBox="0 0 860 372" font-family="ui-sans-serif,system-ui,sans-serif">
<text x="56" y="22" font-size="15" font-weight="600" fill="#8b949e">Book One — index level</text>
<text x="56" y="40" font-size="12" fill="#8b949e" opacity="0.8">base 100 at inception 2026-07-20 · score-weighted · never rebalanced after entry</text>
<text x="56" y="58" font-size="11.5" fill="#8b949e" opacity="0.62">30 trading days · +5.37% since inception · max drawdown −4.27% · 19 holdings · as of 2026-08-28</text>
<line x1="56" y1="338.0" x2="834" y2="338.0" stroke="#8b949e" stroke-opacity="0.18"/>
<text x="48" y="342.0" font-size="11" fill="#8b949e" text-anchor="end">93.9</text>
<line x1="56" y1="271.5" x2="834" y2="271.5" stroke="#8b949e" stroke-opacity="0.18"/>
<text x="48" y="275.5" font-size="11" fill="#8b949e" text-anchor="end">97.3</text>
<line x1="56" y1="205.0" x2="834" y2="205.0" stroke="#8b949e" stroke-opacity="0.18"/>
<text x="48" y="209.0" font-size="11" fill="#8b949e" text-anchor="end">100.8</text>
<line x1="56" y1="138.5" x2="834" y2="138.5" stroke="#8b949e" stroke-opacity="0.18"/>
<text x="48" y="142.5" font-size="11" fill="#8b949e" text-anchor="end">104.2</text>
<line x1="56" y1="72.0" x2="834" y2="72.0" stroke="#8b949e" stroke-opacity="0.18"/>
<text x="48" y="76.0" font-size="11" fill="#8b949e" text-anchor="end">107.6</text>
<line x1="56" y1="219.7" x2="834" y2="219.7" stroke="#8b949e" stroke-opacity="0.5" stroke-dasharray="4 4"/>
<text x="60" y="213.7" font-size="11" fill="#8b949e" text-anchor="start" opacity="0.8">base 100</text>
<text x="56.0" y="362" font-size="11" fill="#8b949e" text-anchor="middle">07-20</text>
<text x="163.3" y="362" font-size="11" fill="#8b949e" text-anchor="middle">07-24</text>
<text x="270.6" y="362" font-size="11" fill="#8b949e" text-anchor="middle">07-30</text>
<text x="377.9" y="362" font-size="11" fill="#8b949e" text-anchor="middle">08-05</text>
<text x="485.2" y="362" font-size="11" fill="#8b949e" text-anchor="middle">08-11</text>
<text x="592.6" y="362" font-size="11" fill="#8b949e" text-anchor="middle">08-17</text>
<text x="699.9" y="362" font-size="11" fill="#8b949e" text-anchor="middle">08-21</text>
<text x="834.0" y="362" font-size="11" fill="#8b949e" text-anchor="middle">08-28</text>
<defs><clipPath id="above"><rect x="56" y="72" width="778" height="147.7"/></clipPath><clipPath id="below"><rect x="56" y="219.7" width="778" height="118.3"/></clipPath></defs>
<polygon points="56.0,219.7 56.0,219.7 82.8,248.2 109.7,270.6 136.5,302.8 163.3,262.7 190.1,210.3 217.0,142.4 243.8,117.9 270.6,185.8 297.4,203.1 324.3,179.6 351.1,142.9 377.9,149.2 404.8,139.9 431.6,156.0 458.4,141.3 485.2,162.3 512.1,179.0 538.9,122.5 565.7,137.6 592.6,185.5 619.4,161.6 646.2,135.2 673.0,145.8 699.9,126.6 726.7,107.2 753.5,124.0 780.3,123.6 807.2,119.6 834.0,115.2 834.0,219.7" fill="#a0392f" fill-opacity="0.14" clip-path="url(#above)"/>
<polygon points="56.0,219.7 56.0,219.7 82.8,248.2 109.7,270.6 136.5,302.8 163.3,262.7 190.1,210.3 217.0,142.4 243.8,117.9 270.6,185.8 297.4,203.1 324.3,179.6 351.1,142.9 377.9,149.2 404.8,139.9 431.6,156.0 458.4,141.3 485.2,162.3 512.1,179.0 538.9,122.5 565.7,137.6 592.6,185.5 619.4,161.6 646.2,135.2 673.0,145.8 699.9,126.6 726.7,107.2 753.5,124.0 780.3,123.6 807.2,119.6 834.0,115.2 834.0,219.7" fill="#8b949e" fill-opacity="0.14" clip-path="url(#below)"/>
<polyline points="56.0,219.7 82.8,248.2 109.7,270.6 136.5,302.8 163.3,262.7 190.1,210.3 217.0,142.4 243.8,117.9 270.6,185.8 297.4,203.1 324.3,179.6 351.1,142.9 377.9,149.2 404.8,139.9 431.6,156.0 458.4,141.3 485.2,162.3 512.1,179.0 538.9,122.5 565.7,137.6 592.6,185.5 619.4,161.6 646.2,135.2 673.0,145.8 699.9,126.6 726.7,107.2 753.5,124.0 780.3,123.6 807.2,119.6 834.0,115.2" fill="none" stroke="#a0392f" stroke-width="2.5" stroke-linejoin="round" stroke-linecap="round"/>
<circle cx="136.5" cy="302.8" r="2.5" fill="#a0392f" fill-opacity="0.55"/>
<text x="136.5" y="318.8" font-size="11" fill="#8b949e" text-anchor="middle">95.73</text>
<circle cx="726.7" cy="107.2" r="2.5" fill="#a0392f" fill-opacity="0.55"/>
<text x="726.7" y="98.2" font-size="11" fill="#8b949e" text-anchor="middle">105.78</text>
<circle cx="834.0" cy="115.2" r="3.5" fill="#a0392f"/>
<text x="826.0" y="105.2" font-size="12" font-weight="600" fill="#a0392f" text-anchor="end">105.37</text>
</svg>
