<svg xmlns="http://www.w3.org/2000/svg" viewBox="0 0 860 372" font-family="ui-sans-serif,system-ui,sans-serif">
<text x="56" y="22" font-size="15" font-weight="600" fill="#8b949e">Book One — index level</text>
<text x="56" y="40" font-size="12" fill="#8b949e" opacity="0.8">base 100 at inception 2026-07-20 · score-weighted · never rebalanced after entry</text>
<text x="56" y="58" font-size="11.5" fill="#8b949e" opacity="0.62">50 trading days · -3.60% since inception · max drawdown −8.87% · 19 holdings · as of 2026-09-28</text>
<line x1="56" y1="338.0" x2="834" y2="338.0" stroke="#8b949e" stroke-opacity="0.18"/>
<text x="48" y="342.0" font-size="11" fill="#8b949e" text-anchor="end">93.9</text>
<line x1="56" y1="271.5" x2="834" y2="271.5" stroke="#8b949e" stroke-opacity="0.18"/>
<text x="48" y="275.5" font-size="11" fill="#8b949e" text-anchor="end">97.3</text>
<line x1="56" y1="205.0" x2="834" y2="205.0" stroke="#8b949e" stroke-opacity="0.18"/>
<text x="48" y="209.0" font-size="11" fill="#8b949e" text-anchor="end">100.8</text>
<line x1="56" y1="138.5" x2="834" y2="138.5" stroke="#8b949e" stroke-opacity="0.18"/>
<text x="48" y="142.5" font-size="11" fill="#8b949e" text-anchor="end">104.2</text>
<line x1="56" y1="72.0" x2="834" y2="72.0" stroke="#8b949e" stroke-opacity="0.18"/>
<text x="48" y="76.0" font-size="11" fill="#8b949e" text-anchor="end">107.6</text>
<line x1="56" y1="219.7" x2="834" y2="219.7" stroke="#8b949e" stroke-opacity="0.5" stroke-dasharray="4 4"/>
<text x="60" y="213.7" font-size="11" fill="#8b949e" text-anchor="start" opacity="0.8">base 100</text>
<text x="56.0" y="362" font-size="11" fill="#8b949e" text-anchor="middle">07-20</text>
<text x="183.0" y="362" font-size="11" fill="#8b949e" text-anchor="middle">07-30</text>
<text x="310.0" y="362" font-size="11" fill="#8b949e" text-anchor="middle">08-11</text>
<text x="437.1" y="362" font-size="11" fill="#8b949e" text-anchor="middle">08-21</text>
<text x="564.1" y="362" font-size="11" fill="#8b949e" text-anchor="middle">09-02</text>
<text x="691.1" y="362" font-size="11" fill="#8b949e" text-anchor="middle">09-15</text>
<text x="834.0" y="362" font-size="11" fill="#8b949e" text-anchor="middle">09-28</text>
<defs><clipPath id="above"><rect x="56" y="72" width="778" height="147.7"/></clipPath><clipPath id="below"><rect x="56" y="219.7" width="778" height="118.3"/></clipPath></defs>
<polygon points="56.0,219.7 56.0,219.7 71.9,248.2 87.8,270.6 103.6,302.8 119.5,262.7 135.4,210.3 151.3,142.4 167.1,117.9 183.0,185.8 198.9,203.1 214.8,179.6 230.7,142.9 246.5,149.2 262.4,139.9 278.3,156.0 294.2,141.3 310.0,162.3 325.9,179.0 341.8,122.5 357.7,137.6 373.6,185.5 389.4,161.6 405.3,135.2 421.2,145.8 437.1,126.6 452.9,107.2 468.8,124.0 484.7,123.6 500.6,119.6 516.4,115.2 532.3,125.9 548.2,147.5 564.1,153.4 580.0,134.9 595.8,175.1 611.7,222.8 627.6,255.4 643.5,259.1 659.3,233.5 675.2,189.9 691.1,221.7 707.0,238.3 722.9,236.7 738.7,254.6 754.6,247.6 770.5,266.6 786.4,278.7 802.2,282.4 818.1,277.9 834.0,289.7 834.0,219.7" fill="#a0392f" fill-opacity="0.14" clip-path="url(#above)"/>
<polygon points="56.0,219.7 56.0,219.7 71.9,248.2 87.8,270.6 103.6,302.8 119.5,262.7 135.4,210.3 151.3,142.4 167.1,117.9 183.0,185.8 198.9,203.1 214.8,179.6 230.7,142.9 246.5,149.2 262.4,139.9 278.3,156.0 294.2,141.3 310.0,162.3 325.9,179.0 341.8,122.5 357.7,137.6 373.6,185.5 389.4,161.6 405.3,135.2 421.2,145.8 437.1,126.6 452.9,107.2 468.8,124.0 484.7,123.6 500.6,119.6 516.4,115.2 532.3,125.9 548.2,147.5 564.1,153.4 580.0,134.9 595.8,175.1 611.7,222.8 627.6,255.4 643.5,259.1 659.3,233.5 675.2,189.9 691.1,221.7 707.0,238.3 722.9,236.7 738.7,254.6 754.6,247.6 770.5,266.6 786.4,278.7 802.2,282.4 818.1,277.9 834.0,289.7 834.0,219.7" fill="#8b949e" fill-opacity="0.14" clip-path="url(#below)"/>
<polyline points="56.0,219.7 71.9,248.2 87.8,270.6 103.6,302.8 119.5,262.7 135.4,210.3 151.3,142.4 167.1,117.9 183.0,185.8 198.9,203.1 214.8,179.6 230.7,142.9 246.5,149.2 262.4,139.9 278.3,156.0 294.2,141.3 310.0,162.3 325.9,179.0 341.8,122.5 357.7,137.6 373.6,185.5 389.4,161.6 405.3,135.2 421.2,145.8 437.1,126.6 452.9,107.2 468.8,124.0 484.7,123.6 500.6,119.6 516.4,115.2 532.3,125.9 548.2,147.5 564.1,153.4 580.0,134.9 595.8,175.1 611.7,222.8 627.6,255.4 643.5,259.1 659.3,233.5 675.2,189.9 691.1,221.7 707.0,238.3 722.9,236.7 738.7,254.6 754.6,247.6 770.5,266.6 786.4,278.7 802.2,282.4 818.1,277.9 834.0,289.7" fill="none" stroke="#a0392f" stroke-width="2.5" stroke-linejoin="round" stroke-linecap="round"/>
<circle cx="103.6" cy="302.8" r="2.5" fill="#a0392f" fill-opacity="0.55"/>
<text x="103.6" y="318.8" font-size="11" fill="#8b949e" text-anchor="middle">95.73</text>
<circle cx="452.9" cy="107.2" r="2.5" fill="#a0392f" fill-opacity="0.55"/>
<text x="452.9" y="98.2" font-size="11" fill="#8b949e" text-anchor="middle">105.78</text>
<circle cx="834.0" cy="289.7" r="3.5" fill="#a0392f"/>
<text x="826.0" y="279.7" font-size="12" font-weight="600" fill="#a0392f" text-anchor="end">96.40</text>
</svg>
