<svg xmlns="http://www.w3.org/2000/svg" viewBox="0 0 860 372" font-family="ui-sans-serif,system-ui,sans-serif">
<text x="56" y="22" font-size="15" font-weight="600" fill="#8b949e">Book One — index level</text>
<text x="56" y="40" font-size="12" fill="#8b949e" opacity="0.8">base 100 at inception 2026-07-20 · score-weighted · never rebalanced after entry</text>
<text x="56" y="58" font-size="11.5" fill="#8b949e" opacity="0.62">16 trading days · +4.03% since inception · max drawdown −4.27% · 19 holdings · as of 2026-08-10</text>
<line x1="56" y1="338.0" x2="834" y2="338.0" stroke="#8b949e" stroke-opacity="0.18"/>
<text x="48" y="342.0" font-size="11" fill="#8b949e" text-anchor="end">94.0</text>
<line x1="56" y1="271.5" x2="834" y2="271.5" stroke="#8b949e" stroke-opacity="0.18"/>
<text x="48" y="275.5" font-size="11" fill="#8b949e" text-anchor="end">97.2</text>
<line x1="56" y1="205.0" x2="834" y2="205.0" stroke="#8b949e" stroke-opacity="0.18"/>
<text x="48" y="209.0" font-size="11" fill="#8b949e" text-anchor="end">100.5</text>
<line x1="56" y1="138.5" x2="834" y2="138.5" stroke="#8b949e" stroke-opacity="0.18"/>
<text x="48" y="142.5" font-size="11" fill="#8b949e" text-anchor="end">103.7</text>
<line x1="56" y1="72.0" x2="834" y2="72.0" stroke="#8b949e" stroke-opacity="0.18"/>
<text x="48" y="76.0" font-size="11" fill="#8b949e" text-anchor="end">106.9</text>
<line x1="56" y1="214.9" x2="834" y2="214.9" stroke="#8b949e" stroke-opacity="0.5" stroke-dasharray="4 4"/>
<text x="60" y="208.9" font-size="11" fill="#8b949e" text-anchor="start" opacity="0.8">base 100</text>
<text x="56.0" y="362" font-size="11" fill="#8b949e" text-anchor="middle">07-20</text>
<text x="159.7" y="362" font-size="11" fill="#8b949e" text-anchor="middle">07-22</text>
<text x="263.5" y="362" font-size="11" fill="#8b949e" text-anchor="middle">07-24</text>
<text x="367.2" y="362" font-size="11" fill="#8b949e" text-anchor="middle">07-28</text>
<text x="470.9" y="362" font-size="11" fill="#8b949e" text-anchor="middle">07-30</text>
<text x="574.7" y="362" font-size="11" fill="#8b949e" text-anchor="middle">08-03</text>
<text x="678.4" y="362" font-size="11" fill="#8b949e" text-anchor="middle">08-05</text>
<text x="834.0" y="362" font-size="11" fill="#8b949e" text-anchor="middle">08-10</text>
<defs><clipPath id="above"><rect x="56" y="72" width="778" height="142.9"/></clipPath><clipPath id="below"><rect x="56" y="214.9" width="778" height="123.1"/></clipPath></defs>
<polygon points="56.0,214.9 56.0,214.9 107.9,245.0 159.7,268.8 211.6,302.8 263.5,260.3 315.3,205.0 367.2,133.2 419.1,107.2 470.9,179.1 522.8,197.3 574.7,172.5 626.5,133.6 678.4,140.3 730.3,130.5 782.1,147.5 834.0,132.0 834.0,214.9" fill="#a0392f" fill-opacity="0.14" clip-path="url(#above)"/>
<polygon points="56.0,214.9 56.0,214.9 107.9,245.0 159.7,268.8 211.6,302.8 263.5,260.3 315.3,205.0 367.2,133.2 419.1,107.2 470.9,179.1 522.8,197.3 574.7,172.5 626.5,133.6 678.4,140.3 730.3,130.5 782.1,147.5 834.0,132.0 834.0,214.9" fill="#8b949e" fill-opacity="0.14" clip-path="url(#below)"/>
<polyline points="56.0,214.9 107.9,245.0 159.7,268.8 211.6,302.8 263.5,260.3 315.3,205.0 367.2,133.2 419.1,107.2 470.9,179.1 522.8,197.3 574.7,172.5 626.5,133.6 678.4,140.3 730.3,130.5 782.1,147.5 834.0,132.0" fill="none" stroke="#a0392f" stroke-width="2.5" stroke-linejoin="round" stroke-linecap="round"/>
<circle cx="211.6" cy="302.8" r="2.5" fill="#a0392f" fill-opacity="0.55"/>
<text x="211.6" y="318.8" font-size="11" fill="#8b949e" text-anchor="middle">95.73</text>
<circle cx="419.1" cy="107.2" r="2.5" fill="#a0392f" fill-opacity="0.55"/>
<text x="419.1" y="98.2" font-size="11" fill="#8b949e" text-anchor="middle">105.23</text>
<circle cx="834.0" cy="132.0" r="3.5" fill="#a0392f"/>
<text x="826.0" y="122.0" font-size="12" font-weight="600" fill="#a0392f" text-anchor="end">104.03</text>
</svg>
