<svg xmlns="http://www.w3.org/2000/svg" viewBox="0 0 860 360" font-family="ui-sans-serif,system-ui,sans-serif">
<text x="56" y="22" font-size="15" font-weight="600" fill="#8b949e">Book One — index level</text>
<text x="56" y="40" font-size="12" fill="#8b949e" opacity="0.8">base 100 at inception 2026-07-20 · score-weighted · never rebalanced after entry</text>
<line x1="56" y1="326.0" x2="834" y2="326.0" stroke="#8b949e" stroke-opacity="0.18"/>
<text x="48" y="330.0" font-size="11" fill="#8b949e" text-anchor="end">95.0</text>
<line x1="56" y1="258.0" x2="834" y2="258.0" stroke="#8b949e" stroke-opacity="0.18"/>
<text x="48" y="262.0" font-size="11" fill="#8b949e" text-anchor="end">96.4</text>
<line x1="56" y1="190.0" x2="834" y2="190.0" stroke="#8b949e" stroke-opacity="0.18"/>
<text x="48" y="194.0" font-size="11" fill="#8b949e" text-anchor="end">97.9</text>
<line x1="56" y1="122.0" x2="834" y2="122.0" stroke="#8b949e" stroke-opacity="0.18"/>
<text x="48" y="126.0" font-size="11" fill="#8b949e" text-anchor="end">99.3</text>
<line x1="56" y1="54.0" x2="834" y2="54.0" stroke="#8b949e" stroke-opacity="0.18"/>
<text x="48" y="58.0" font-size="11" fill="#8b949e" text-anchor="end">100.8</text>
<line x1="56" y1="90.0" x2="834" y2="90.0" stroke="#8b949e" stroke-opacity="0.5" stroke-dasharray="4 4"/>
<text x="834" y="84.0" font-size="11" fill="#8b949e" text-anchor="end" opacity="0.8">base 100</text>
<text x="56.0" y="350" font-size="11" fill="#8b949e" text-anchor="middle">07-20</text>
<text x="315.3" y="350" font-size="11" fill="#8b949e" text-anchor="middle">07-21</text>
<text x="574.7" y="350" font-size="11" fill="#8b949e" text-anchor="middle">07-22</text>
<text x="834.0" y="350" font-size="11" fill="#8b949e" text-anchor="middle">07-23</text>
<polyline points="56.0,90.0 315.3,158.6 574.7,212.6 834.0,290.0" fill="none" stroke="#a0392f" stroke-width="2.5" stroke-linejoin="round" stroke-linecap="round"/>
<circle cx="834.0" cy="290.0" r="3.5" fill="#a0392f"/>
<text x="826.0" y="280.0" font-size="12" font-weight="600" fill="#a0392f" text-anchor="end">95.73</text>
</svg>
