<svg xmlns="http://www.w3.org/2000/svg" viewBox="0 0 860 372" font-family="ui-sans-serif,system-ui,sans-serif">
<text x="56" y="22" font-size="15" font-weight="600" fill="#8b949e">Book One — index level</text>
<text x="56" y="40" font-size="12" fill="#8b949e" opacity="0.8">base 100 at inception 2026-07-20 · score-weighted · never rebalanced after entry</text>
<text x="56" y="58" font-size="11.5" fill="#8b949e" opacity="0.62">36 trading days · -0.16% since inception · max drawdown −5.62% · 19 holdings · as of 2026-09-08</text>
<line x1="56" y1="338.0" x2="834" y2="338.0" stroke="#8b949e" stroke-opacity="0.18"/>
<text x="48" y="342.0" font-size="11" fill="#8b949e" text-anchor="end">93.9</text>
<line x1="56" y1="271.5" x2="834" y2="271.5" stroke="#8b949e" stroke-opacity="0.18"/>
<text x="48" y="275.5" font-size="11" fill="#8b949e" text-anchor="end">97.3</text>
<line x1="56" y1="205.0" x2="834" y2="205.0" stroke="#8b949e" stroke-opacity="0.18"/>
<text x="48" y="209.0" font-size="11" fill="#8b949e" text-anchor="end">100.8</text>
<line x1="56" y1="138.5" x2="834" y2="138.5" stroke="#8b949e" stroke-opacity="0.18"/>
<text x="48" y="142.5" font-size="11" fill="#8b949e" text-anchor="end">104.2</text>
<line x1="56" y1="72.0" x2="834" y2="72.0" stroke="#8b949e" stroke-opacity="0.18"/>
<text x="48" y="76.0" font-size="11" fill="#8b949e" text-anchor="end">107.6</text>
<line x1="56" y1="219.7" x2="834" y2="219.7" stroke="#8b949e" stroke-opacity="0.5" stroke-dasharray="4 4"/>
<text x="60" y="213.7" font-size="11" fill="#8b949e" text-anchor="start" opacity="0.8">base 100</text>
<text x="56.0" y="362" font-size="11" fill="#8b949e" text-anchor="middle">07-20</text>
<text x="167.1" y="362" font-size="11" fill="#8b949e" text-anchor="middle">07-27</text>
<text x="278.3" y="362" font-size="11" fill="#8b949e" text-anchor="middle">08-03</text>
<text x="389.4" y="362" font-size="11" fill="#8b949e" text-anchor="middle">08-10</text>
<text x="500.6" y="362" font-size="11" fill="#8b949e" text-anchor="middle">08-17</text>
<text x="611.7" y="362" font-size="11" fill="#8b949e" text-anchor="middle">08-24</text>
<text x="722.9" y="362" font-size="11" fill="#8b949e" text-anchor="middle">08-31</text>
<text x="834.0" y="362" font-size="11" fill="#8b949e" text-anchor="middle">09-08</text>
<defs><clipPath id="above"><rect x="56" y="72" width="778" height="147.7"/></clipPath><clipPath id="below"><rect x="56" y="219.7" width="778" height="118.3"/></clipPath></defs>
<polygon points="56.0,219.7 56.0,219.7 78.2,248.2 100.5,270.6 122.7,302.8 144.9,262.7 167.1,210.3 189.4,142.4 211.6,117.9 233.8,185.8 256.1,203.1 278.3,179.6 300.5,142.9 322.7,149.2 345.0,139.9 367.2,156.0 389.4,141.3 411.7,162.3 433.9,179.0 456.1,122.5 478.3,137.6 500.6,185.5 522.8,161.6 545.0,135.2 567.3,145.8 589.5,126.6 611.7,107.2 633.9,124.0 656.2,123.6 678.4,119.6 700.6,115.2 722.9,125.9 745.1,147.5 767.3,153.4 789.5,134.9 811.8,175.1 834.0,222.8 834.0,219.7" fill="#a0392f" fill-opacity="0.14" clip-path="url(#above)"/>
<polygon points="56.0,219.7 56.0,219.7 78.2,248.2 100.5,270.6 122.7,302.8 144.9,262.7 167.1,210.3 189.4,142.4 211.6,117.9 233.8,185.8 256.1,203.1 278.3,179.6 300.5,142.9 322.7,149.2 345.0,139.9 367.2,156.0 389.4,141.3 411.7,162.3 433.9,179.0 456.1,122.5 478.3,137.6 500.6,185.5 522.8,161.6 545.0,135.2 567.3,145.8 589.5,126.6 611.7,107.2 633.9,124.0 656.2,123.6 678.4,119.6 700.6,115.2 722.9,125.9 745.1,147.5 767.3,153.4 789.5,134.9 811.8,175.1 834.0,222.8 834.0,219.7" fill="#8b949e" fill-opacity="0.14" clip-path="url(#below)"/>
<polyline points="56.0,219.7 78.2,248.2 100.5,270.6 122.7,302.8 144.9,262.7 167.1,210.3 189.4,142.4 211.6,117.9 233.8,185.8 256.1,203.1 278.3,179.6 300.5,142.9 322.7,149.2 345.0,139.9 367.2,156.0 389.4,141.3 411.7,162.3 433.9,179.0 456.1,122.5 478.3,137.6 500.6,185.5 522.8,161.6 545.0,135.2 567.3,145.8 589.5,126.6 611.7,107.2 633.9,124.0 656.2,123.6 678.4,119.6 700.6,115.2 722.9,125.9 745.1,147.5 767.3,153.4 789.5,134.9 811.8,175.1 834.0,222.8" fill="none" stroke="#a0392f" stroke-width="2.5" stroke-linejoin="round" stroke-linecap="round"/>
<circle cx="122.7" cy="302.8" r="2.5" fill="#a0392f" fill-opacity="0.55"/>
<text x="122.7" y="318.8" font-size="11" fill="#8b949e" text-anchor="middle">95.73</text>
<circle cx="611.7" cy="107.2" r="2.5" fill="#a0392f" fill-opacity="0.55"/>
<text x="611.7" y="98.2" font-size="11" fill="#8b949e" text-anchor="middle">105.78</text>
<circle cx="834.0" cy="222.8" r="3.5" fill="#a0392f"/>
<text x="826.0" y="212.8" font-size="12" font-weight="600" fill="#a0392f" text-anchor="end">99.84</text>
</svg>
